# xmcd
#
# Track frame offsets:
#	150
#	16120
#	31087
#	48252
#	68595
#	87535
#	107567
#	125200
#	142142
#	161627
#	182617
#	206272
#
# Disc length: 3080 seconds
#
# Revision: 1
# Processed by: cddbd v1.5.1PL0 Copyright (c) Steve Scherf et al.
# Submitted via: CDex 1.50Beta5
#
DISCID=9d0c060c
DTITLE=マイリーン - フォー・ザ・ファースト・タイム
DYEAR=2001
DGENRE=
TTITLE0=フォー・ザ・ファースト・タイム
TTITLE1=スタッフ・ドリームス・アー・メイド・オブ
TTITLE2=リトル・レッド・カー
TTITLE3=アイ・ドント・ワナ・ルーズ・ユー
TTITLE4=トゥー・レイト
TTITLE5=ウィッシュ
TTITLE6=マン・イナフ
TTITLE7=D.J.イン・マイ・ライフ
TTITLE8=ジャスト・アナザー・ブロークン・ハート
TTITLE9=スティル・ライト・ヒアー・イン・マイ・ハート
TTITLE10=スタッフ・ドリームス・アー・メイド・オブ
TTITLE11=フォー・ザ・ファースト・タイム
EXTD=
EXTT0=
EXTT1=
EXTT2=
EXTT3=
EXTT4=
EXTT5=
EXTT6=
EXTT7=
EXTT8=
EXTT9=
EXTT10=
EXTT11=
PLAYORDER=
